<svg width="256" height="227" viewBox="0 0 256 227" fill="none" xmlns="http://www.w3.org/2000/svg">
<g clip-path="url(#clip0)">
<path fill-rule="evenodd" clip-rule="evenodd" d="M93.4395 195.8H88.2795C85.7149 195.799 83.1957 195.123 80.9751 193.84C78.7546 192.557 76.9109 190.712 75.6295 188.49L36.3495 120.49C35.0672 118.269 34.3921 115.75 34.3921 113.185C34.3921 110.62 35.0672 108.101 36.3495 105.88L75.6295 37.88C76.9114 35.6596 78.7554 33.816 80.9761 32.5345C83.1967 31.2531 85.7156 30.5789 88.2795 30.58H140.1L148.719 0H73.7795C70.2688 8.91844e-05 66.8201 0.924257 63.7798 2.67962C60.7395 4.43498 58.2148 6.95969 56.4595 10L2.67949 103.15C0.924125 106.19 0 109.639 0 113.15C0 116.661 0.924125 120.11 2.67949 123.15L56.4595 216.3C58.2148 219.34 60.7395 221.865 63.7798 223.62C66.8201 225.376 70.2688 226.3 73.7795 226.3H84.7795L93.4395 195.8ZM146.904 68.9143C147.962 65.1957 145.804 61.3241 142.086 60.2668C138.367 59.2096 134.495 61.3671 133.438 65.0857L108.393 153.175L106.489 159.873C106.348 160.221 106.27 160.601 106.27 161C106.27 162.657 107.613 164 109.27 164H166.27C167.927 164 169.27 162.657 169.27 161C169.27 159.343 167.927 158 166.27 158H121.576L121.86 157.003L146.904 68.9143ZM198.659 10L252.449 103.15C254.203 106.191 255.126 109.641 255.124 113.151C255.122 116.662 254.196 120.11 252.439 123.15L198.649 216.3C196.894 219.34 194.369 221.865 191.329 223.62C188.289 225.376 184.84 226.3 181.329 226.3H103.999L112.629 195.73H166.839C169.404 195.729 171.923 195.053 174.144 193.77C176.364 192.487 178.208 190.642 179.49 188.42L218.779 120.42C220.062 118.199 220.737 115.68 220.737 113.115C220.737 110.55 220.062 108.031 218.779 105.81L179.49 37.81C178.208 35.5896 176.364 33.746 174.143 32.4645C171.922 31.183 169.403 30.5089 166.839 30.51H159.289L167.909 0H181.339C184.85 8.91844e-05 188.299 0.924257 191.339 2.67962C194.379 4.43498 196.904 6.95969 198.659 10Z" fill="url(#paint0_linear)"/>
</g>
<defs>
<linearGradient id="paint0_linear" x1="167" y1="-7.18001e-07" x2="112" y2="197" gradientUnits="userSpaceOnUse">
<stop offset="0.302083" stop-color="#0170AE"/>
<stop offset="1" stop-color="#FF6A0D"/>
</linearGradient>
<clipPath id="clip0">
<rect width="255.12" height="226.3" fill="white"/>
</clipPath>
</defs>
</svg>
